/* XPM */
static char * Exit_xpm[] = {
"150 30 54 1",
" 	c None",
".	c #FFFFFF",
"+	c #000000",
"@	c #575757",
"#	c #2C2C2C",
"$	c #FEFEFE",
"%	c #5A5A5A",
"&	c #EDEDED",
"*	c #1A1A1A",
"=	c #A8A8A8",
"-	c #A7A7A7",
";	c #1F1F1F",
">	c #F0F0F0",
",	c #B7B7B7",
"'	c #282828",
")	c #FDFDFD",
"!	c #FCFCFC",
"~	c #272727",
"{	c #020202",
"]	c #C2C2C2",
"^	c #696969",
"/	c #A2A2A2",
"(	c #A1A1A1",
"_	c #7A7A7A",
":	c #F5F5F5",
"<	c #232323",
"[	c #303030",
"}	c #FAFAFA",
"|	c #E7E7E7",
"1	c #111111",
"2	c #1D1D1D",
"3	c #0E0E0E",
"4	c #161616",
"5	c #EBEBEB",
"6	c #4F4F4F",
"7	c #878787",
"8	c #010101",
"9	c #A6A6A6",
"0	c #F7F7F7",
"a	c #1E1E1E",
"b	c #ACACAC",
"c	c #131313",
"d	c #BEBEBE",
"e	c #E9E9E9",
"f	c #141414",
"g	c #B3B3B3",
"h	c #A5A5A5",
"i	c #545454",
"j	c #3B3B3B",
"k	c #353535",
"l	c #555555",
"m	c #E5E5E5",
"n	c #535353",
"o	c #121212",
"......................................................................................................................................................",
"......................................................................................................................................................",
"......................................................................................................................................................",
"......................................................................................................................................................",
"......................................................................................................................................................",
"......................................................................................................................................................",
"......................................................................................................................................................",
"......................................................................................................................................................",
"...................................................................................++.................................................................",
".............................................................++++++++..............++...++............................................................",
".............................................................++++++++...................++............................................................",
".............................................................++.........................++............................................................",
".............................................................++........@+#$..$#+%..++..++++++.........................................................",
".............................................................++........&*+=..-+;>..++..++++++.........................................................",
".............................................................++++++++...,+')!~{]...++...++............................................................",
".............................................................++++++++....^+/(+_....++...++............................................................",
".............................................................++..........:<<<[}....++...++............................................................",
".............................................................++..........|12345....++...++............................................................",
".............................................................++..........6+(7+@....++...8+$...........................................................",
".............................................................++.........9+#)0a+b...++...c+d$..........................................................",
".............................................................++++++++..ef+g..h+45..++...i++++.........................................................",
".............................................................++++++++..i+j...$k+l..++...mno8+.........................................................",
"......................................................................................................................................................",
"......................................................................................................................................................",
"......................................................................................................................................................",
"......................................................................................................................................................",
"......................................................................................................................................................",
"......................................................................................................................................................",
"......................................................................................................................................................",
"......................................................................................................................................................"};
