/* XPM */
static char * Instructions_xpm[] = {
"150 30 106 2",
"  	c None",
". 	c #FFFFFF",
"+ 	c #000000",
"@ 	c #F2F2F2",
"# 	c #5D5D5D",
"$ 	c #0A0A0A",
"% 	c #131313",
"& 	c #777777",
"* 	c #FEFEFE",
"= 	c #F3F3F3",
"- 	c #737373",
"; 	c #212121",
"> 	c #050505",
", 	c #0E0E0E",
"' 	c #444444",
") 	c #B3B3B3",
"! 	c #676767",
"~ 	c #121212",
"{ 	c #030303",
"] 	c #FBFBFB",
"^ 	c #909090",
"/ 	c #333333",
"( 	c #0B0B0B",
"_ 	c #090909",
": 	c #3F3F3F",
"< 	c #B2B2B2",
"[ 	c #F9F9F9",
"} 	c #888888",
"| 	c #2F2F2F",
"1 	c #8A8A8A",
"2 	c #FAFAFA",
"3 	c #505050",
"4 	c #939393",
"5 	c #555555",
"6 	c #4E4E4E",
"7 	c #464646",
"8 	c #F8F8F8",
"9 	c #3E3E3E",
"0 	c #414141",
"a 	c #373737",
"b 	c #DBDBDB",
"c 	c #F5F5F5",
"d 	c #6D6D6D",
"e 	c #343434",
"f 	c #080808",
"g 	c #F1F1F1",
"h 	c #C9C9C9",
"i 	c #525252",
"j 	c #1E1E1E",
"k 	c #BDBDBD",
"l 	c #8C8C8C",
"m 	c #0D0D0D",
"n 	c #9B9B9B",
"o 	c #ECECEC",
"p 	c #C6C6C6",
"q 	c #111111",
"r 	c #A7A7A7",
"s 	c #A6A6A6",
"t 	c #101010",
"u 	c #CFCFCF",
"v 	c #E9E9E9",
"w 	c #4B4B4B",
"x 	c #808080",
"y 	c #C1C1C1",
"z 	c #FDFDFD",
"A 	c #B6B6B6",
"B 	c #A4A4A4",
"C 	c #2E2E2E",
"D 	c #A8A8A8",
"E 	c #A5A5A5",
"F 	c #303030",
"G 	c #FCFCFC",
"H 	c #242424",
"I 	c #D0D0D0",
"J 	c #F4F4F4",
"K 	c #B0B0B0",
"L 	c #717171",
"M 	c #1C1C1C",
"N 	c #E7E7E7",
"O 	c #010101",
"P 	c #CECECE",
"Q 	c #AAAAAA",
"R 	c #484848",
"S 	c #BABABA",
"T 	c #9A9A9A",
"U 	c #BEBEBE",
"V 	c #6E6E6E",
"W 	c #F6F6F6",
"X 	c #8D8D8D",
"Y 	c #0F0F0F",
"Z 	c #9E9E9E",
"` 	c #EDEDED",
" .	c #C7C7C7",
"..	c #5A5A5A",
"+.	c #545454",
"@.	c #4F4F4F",
"#.	c #434343",
"$.	c #3D3D3D",
"%.	c #404040",
"&.	c #BFBFBF",
"*.	c #535353",
"=.	c #040404",
"-.	c #787878",
";.	c #E5E5E5",
">.	c #8B8B8B",
",.	c #898989",
". . . . . . . . . . . . . . . . . . . . . . . . . . . . . . . . . . . . . . . . . . . . . . . . . . . . . . . . . . . . . . . . . . . . . . . . . . . . . . . . . . . . . . . . . . . . . . . . . . . . . . . . . . . . . . . . . . . . . . . . . . . . . . . . . . . . . . . . . . . . . . . . . . . . . . ",
". . . . . . . . . . . . . . . . . . . . . . . . . . . . . . . . . . . . . . . . . . . . . . . . . . . . . . . . . . . . . . . . . . . . . . . . . . . . . . . . . . . . . . . . . . . . . . . . . . . . . . . . . . . . . . . . . . . . . . . . . . . . . . . . . . . . . . . . . . . . . . . . . . . . . . ",
". . . . . . . . . . . . . . . . . . . . . . . . . . . . . . . . . . . . . . . . . . . . . . . . . . . . . . . . . . . . . . . . . . . . . . . . . . . . . . . . . . . . . . . . . . . . . . . . . . . . . . . . . . . . . . . . . . . . . . . . . . . . . . . . . . . . . . . . . . . . . . . . . . . . . . ",
". . . . . . . . . . . . . . . . . . . . . . . . . . . . . . . . . . . . . . . . . . . . . . . . . . . . . . . . . . . . . . . . . . . . . . . . . . . . . . . . . . . . . . . . . . . . . . . . . . . . . . . . . . . . . . . . . . . . . . . . . . . . . . . . . . . . . . . . . . . . . . . . . . . . . . ",
". . . . . . . . . . . . . . . . . . . . . . . . . . . . . . . . . . . . . . . . . . . . . . . . . . . . . . . . . . . . . . . . . . . . . . . . . . . . . . . . . . . . . . . . . . . . . . . . . . . . . . . . . . . . . . . . . . . . . . . . . . . . . . . . . . . . . . . . . . . . . . . . . . . . . . ",
". . . . . . . . . . . . . . . . . . . . . . . . . . . . . . . . . . . . . . . . . . . . . . . . . . . . . . . . . . . . . . . . . . . . . . . . . . . . . . . . . . . . . . . . . . . . . . . . . . . . . . . . . . . . . . . . . . . . . . . . . . . . . . . . . . . . . . . . . . . . . . . . . . . . . . ",
". . . . . . . . . . . . . . . . . . . . . . . . . . . . . . . . . . . . . . . . . . . . . . . . . . . . . . . . . . . . . . . . . . . . . . . . . . . . . . . . . . . . . . . . . . . . . . . . . . . . . . . . . . . . . . . . . . . . . . . . . . . . . . . . . . . . . . . . . . . . . . . . . . . . . . ",
". . . . . . . . . . . . . . . . . . . . . . . . . . . . . . . . . . . . . . . . . . . . . . . . . . . . . . . . . . . . . . . . . . . . . . . . . . . . . . . . . . . . . . . . . . . . . . . . . . . . . . . . . . . . . . . . . . . . . . . . . . . . . . . . . . . . . . . . . . . . . . . . . . . . . . ",
". . . . . . . . . . . . . . . . . . . . . . . . . . . . . . . . . . . . . . . . . . . . . . . . . . . . . . . . . . . . . . . . . . . . . . . . . . . . . . . . . . . . . . . . . . . . . . + + . . . . . . . . . . . . . . . . . . . . . . . . . . . . . . . . . . . . . . . . . . . . . . . . . . . . . . ",
". . . . . . . . . . . . . . . . . . . . . . . . . . . + + . . . . . . . . . . . . . . . . . . . . . . . + + . . . . . . . . . . . . . . . . . . . . . . . . . . . . . . . . . + + . . . . . + + . . . . . . . . . . . . . . . . . . . . . . . . . . . . . . . . . . . . . . . . . . . . . . . . . . . . . . ",
". . . . . . . . . . . . . . . . . . . . . . . . . . . + + . . . . . . . . . . . . . . . . . . . . . . . + + . . . . . . . . . . . . . . . . . . . . . . . . . . . . . . . . . + + . . . . . . . . . . . . . . . . . . . . . . . . . . . . . . . . . . . . . . . . . . . . . . . . . . . . . . . . . . . . . ",
". . . . . . . . . . . . . . . . . . . . . . . . . . . + + . . . . . . . . . . . . . . . . . . . . . . . + + . . . . . . . . . . . . . . . . . . . . . . . . . . . . . . . . . + + . . . . . . . . . . . . . . . . . . . . . . . . . . . . . . . . . . . . . . . . . . . . . . . . . . . . . . . . . . . . . ",
". . . . . . . . . . . . . . . . . . . . . . . . . . . + + . . . + + @ # $ % & * . . = - ; > , ' ) . . + + + + + + . . + + = ! ~ { . + + . . . . + + . . . ] ^ / ( _ : < . . + + + + + + . . + + . . . [ } | _ _ | 1 2 . . . + + @ # $ % & * . . = - ; > , ' ) . . . . . . . . . . . . . . . . . . . . . . . ",
". . . . . . . . . . . . . . . . . . . . . . . . . . . + + . . . + + 3 + + + + 4 . . 5 + + + + + + . . + + + + + + . . + + 6 + + + . + + . . . . + + . . 2 7 + + + + + + . . + + + + + + . . + + . . 8 9 + + + + + + 0 2 . . + + 3 + + + + 4 . . 5 + + + + + + . . . . . . . . . . . . . . . . . . . . . . . ",
". . . . . . . . . . . . . . . . . . . . . . . . . . . + + . . . + + a b c d + e . . f + 4 g [ h i . . . + + . . . . . + + j k [ . . + + . . . . + + . . l + m n o [ p 3 . . . + + . . . . . + + . . } + q r = = s t + 1 . . + + a b c d + e . . f + 4 g [ h i . . . . . . . . . . . . . . . . . . . . . . . ",
". . . . . . . . . . . . . . . . . . . . . . . . . . . + + . . . + + u . . v + ( . . j + w x y z . . . . + + . . . . . + + A . . . . + + . . . . + + . . | + B . . . . . . . . + + . . . . . + + . . C + D . . . . E + F . . + + u . . v + ( . . j + w x y z . . . . . . . . . . . . . . . . . . . . . . . . ",
". . . . . . . . . . . . . . . . . . . . . . . . . . . + + . . . + + G . . . + + . . A q + + + H I . . . + + . . . . . + + c . . . . + + . . . . + + . . _ + = . . . . . . . . + + . . . . . + + . . f + J . . . . = + _ . . + + G . . . + + . . A q + + + H I . . . . . . . . . . . . . . . . . . . . . . . ",
". . . . . . . . . . . . . . . . . . . . . . . . . . . + + . . . + + . . . . + + . . . c K L M + e . . . + + . . . . . + + . . . . . + + . . . G + + . . _ + = . . . . . . . . + + . . . . . + + . . f + J . . . . = + _ . . + + . . . . + + . . . c K L M + e . . . . . . . . . . . . . . . . . . . . . . . ",
". . . . . . . . . . . . . . . . . . . . . . . . . . . + + . . . + + . . . . + + . . . . . . N + { * . . O + * . . . . + + . . . . . $ + v . . P + + . . F + E . . . . . . . . O + * . . . . + + . . C + Q . . . . r + F . . + + . . . . + + . . . . . . N + { * . . . . . . . . . . . . . . . . . . . . . . ",
". . . . . . . . . . . . . . . . . . . . . . . . . . . + + . . . + + . . . . + + . . R S J = T + f . . . % + U * . . . + + . . . . . / + V W b a + + . . X + Y Z ` [  .3 . . . % + U * . . . + + . . } + % Q J J D q + 1 . . + + . . . . + + . . R S J = T + f . . . . . . . . . . . . . . . . . . . . . . . ",
". . . . . . . . . . . . . . . . . . . . . . . . . . . + + . . . + + . . . . + + . . + + + + + + ... . . +.+ + + + . . + + . . . . . 4 + + + + @.+ + . . 2 #.+ + + + + + . . . +.+ + + + . . + + . . 8 $.+ + + + + + %.[ . . + + . . . . + + . . + + + + + + ... . . . . . . . . . . . . . . . . . . . . . . ",
". . . . . . . . . . . . . . . . . . . . . . . . . . . + + . . . + + . . . . + + . . &.*.% =.; -.W . . . ;.*.~ O + . . + + . . . . . * & % m # @ + + . . . 2 >.C f ( %.< . . . ;.*.~ O + . . + + . . . 8 } C f _ C ,.[ . . . + + . . . . + + . . &.*.% =.; -.W . . . . . . . . . . . . . . . . . . . . . . . ",
". . . . . . . . . . . . . . . . . . . . . . . . . . . . . . . . . . . . . . . . . . . . . . . . . . . . . . . . . . . . . . . . . . . . . . . . . . . . . . . . . . . . . . . . . . . . . . . . . . . . . . . . . . . . . . . . . . . . . . . . . . . . . . . . . . . . . . . . . . . . . . . . . . . . . . ",
". . . . . . . . . . . . . . . . . . . . . . . . . . . . . . . . . . . . . . . . . . . . . . . . . . . . . . . . . . . . . . . . . . . . . . . . . . . . . . . . . . . . . . . . . . . . . . . . . . . . . . . . . . . . . . . . . . . . . . . . . . . . . . . . . . . . . . . . . . . . . . . . . . . . . . ",
". . . . . . . . . . . . . . . . . . . . . . . . . . . . . . . . . . . . . . . . . . . . . . . . . . . . . . . . . . . . . . . . . . . . . . . . . . . . . . . . . . . . . . . . . . . . . . . . . . . . . . . . . . . . . . . . . . . . . . . . . . . . . . . . . . . . . . . . . . . . . . . . . . . . . . ",
". . . . . . . . . . . . . . . . . . . . . . . . . . . . . . . . . . . . . . . . . . . . . . . . . . . . . . . . . . . . . . . . . . . . . . . . . . . . . . . . . . . . . . . . . . . . . . . . . . . . . . . . . . . . . . . . . . . . . . . . . . . . . . . . . . . . . . . . . . . . . . . . . . . . . . ",
". . . . . . . . . . . . . . . . . . . . . . . . . . . . . . . . . . . . . . . . . . . . . . . . . . . . . . . . . . . . . . . . . . . . . . . . . . . . . . . . . . . . . . . . . . . . . . . . . . . . . . . . . . . . . . . . . . . . . . . . . . . . . . . . . . . . . . . . . . . . . . . . . . . . . . ",
". . . . . . . . . . . . . . . . . . . . . . . . . . . . . . . . . . . . . . . . . . . . . . . . . . . . . . . . . . . . . . . . . . . . . . . . . . . . . . . . . . . . . . . . . . . . . . . . . . . . . . . . . . . . . . . . . . . . . . . . . . . . . . . . . . . . . . . . . . . . . . . . . . . . . . ",
". . . . . . . . . . . . . . . . . . . . . . . . . . . . . . . . . . . . . . . . . . . . . . . . . . . . . . . . . . . . . . . . . . . . . . . . . . . . . . . . . . . . . . . . . . . . . . . . . . . . . . . . . . . . . . . . . . . . . . . . . . . . . . . . . . . . . . . . . . . . . . . . . . . . . . ",
". . . . . . . . . . . . . . . . . . . . . . . . . . . . . . . . . . . . . . . . . . . . . . . . . . . . . . . . . . . . . . . . . . . . . . . . . . . . . . . . . . . . . . . . . . . . . . . . . . . . . . . . . . . . . . . . . . . . . . . . . . . . . . . . . . . . . . . . . . . . . . . . . . . . . . "};
