/* XPM */
static char * Left_xpm[] = {
"50 50 56 1",
" 	c None",
".	c #F9F38F",
"+	c #DFDFDF",
"@	c #707070",
"#	c #505050",
"$	c #A0A0A0",
"%	c #8F8F8F",
"&	c #000000",
"*	c #202020",
"=	c #616161",
"-	c #606060",
";	c #7D7D7D",
">	c #383838",
",	c #929292",
"'	c #181818",
")	c #BFBFBF",
"!	c #030303",
"~	c #070707",
"{	c #C3C3C3",
"]	c #050505",
"^	c #A7A7A7",
"/	c #101010",
"(	c #040404",
"_	c #373737",
":	c #010101",
"<	c #242424",
"[	c #0B0B0B",
"}	c #545454",
"|	c #282828",
"1	c #090909",
"2	c #F7F29B",
"3	c #AFAFAF",
"4	c #767676",
"5	c #0A0A0A",
"6	c #464646",
"7	c #2A2A2A",
"8	c #020202",
"9	c #171717",
"0	c #3D3D3D",
"a	c #131313",
"b	c #1A1A1A",
"c	c #1C1C1C",
"d	c #7E7E7E",
"e	c #060606",
"f	c #484848",
"g	c #686868",
"h	c #141414",
"i	c #353535",
"j	c #313131",
"k	c #191919",
"l	c #404040",
"m	c #808080",
"n	c #0E0E0E",
"o	c #343434",
"p	c #1E1E1E",
"q	c #3C3C3C",
"..................................................",
"..................................................",
"..................................................",
"..................................................",
"..................................................",
"..................................................",
"..................................................",
"..................................................",
"..........................+@#$....................",
".........................%&&&*....................",
"........................=&&&&-....................",
".......................;&&&&>+....................",
"......................,&&&&').....................",
".....................,!&&&~{......................",
"....................,!&&&]^.......................",
"...................^~&&&!,........................",
"..................+/&&&(,.........................",
".................._&&&:,..........................",
".................^&&&&_...........................",
"................+<&&&[+...........................",
"................@&&&&}............................",
"................|&&&1+............................",
".............234&&&&5............+@6666666666#$...",
"............+%78&&&&9#$.....+@60a!&&&&&&&&&&&&*...",
"...........2%b&&&&&&&&c@660a!&&&&&&&&&&&&&&&&&-...",
"...........3<&&&&&&&&&&&&&&&&&&&&&&&&&&&&&&&&>+...",
"...........de&&&&&&&&&&&&&&&&&&&&&&&&&&&&&&&f)....",
"...........g&&&&&&&&&&&&&&&&&&&&hi666666666@+.....",
"...........$*jke&&&&&&&&&&&hi66@+.................",
"................l&&&&&&&&(6+......................",
".................*&&&&&&&&/$......................",
".................$*&&&&&&&&*......................",
"...................l&&&&&&&&*$....................",
"....................*&&&&&&&&cm$..................",
"....................$/&&&&&&&&&n#$................",
".....................$*o&&&&&&&&&*................",
".......................m&&&&&&&&&p$...............",
".......................$*q&&&&&&&&*...............",
"..........................*&&&&&&&q...............",
"..........................$*b&&&&&@...............",
"............................#&&&&f+...............",
"............................$/&&>)................",
".............................$*-+.................",
"..................................................",
"..................................................",
"..................................................",
"..................................................",
"..................................................",
"..................................................",
".................................................."};
