/* XPM */
static char * MainMenu_xpm[] = {
"150 30 104 2",
"  	c None",
". 	c #FFFFFF",
"+ 	c #000000",
"@ 	c #9C9C9C",
"# 	c #B9B9B9",
"$ 	c #0B0B0B",
"% 	c #3D3D3D",
"& 	c #555555",
"* 	c #5D5D5D",
"= 	c #010101",
"- 	c #DDDDDD",
"; 	c #EBEBEB",
"> 	c #060606",
", 	c #5E5E5E",
"' 	c #BDBDBD",
") 	c #7E7E7E",
"! 	c #8E8E8E",
"~ 	c #BEBEBE",
"{ 	c #BABABA",
"] 	c #4B4B4B",
"^ 	c #0F0F0F",
"/ 	c #090909",
"( 	c #393939",
"_ 	c #BCBCBC",
": 	c #F2F2F2",
"< 	c #0A0A0A",
"[ 	c #131313",
"} 	c #777777",
"| 	c #FEFEFE",
"1 	c #A3A3A3",
"2 	c #3F3F3F",
"3 	c #232323",
"4 	c #757575",
"5 	c #F0F0F0",
"6 	c #1E1E1E",
"7 	c #202020",
"8 	c #2B2B2B",
"9 	c #1F1F1F",
"0 	c #050505",
"a 	c #CCCCCC",
"b 	c #505050",
"c 	c #939393",
"d 	c #5A5A5A",
"e 	c #F1F1F1",
"f 	c #7C7C7C",
"g 	c #BFBFBF",
"h 	c #C6C6C6",
"i 	c #7D7D7D",
"j 	c #545454",
"k 	c #CDCDCD",
"l 	c #F9F9F9",
"m 	c #E3E3E3",
"n 	c #585858",
"o 	c #373737",
"p 	c #DBDBDB",
"q 	c #F5F5F5",
"r 	c #6D6D6D",
"s 	c #343434",
"t 	c #9B9B9B",
"u 	c #212121",
"v 	c #B0B0B0",
"w 	c #FAFAFA",
"x 	c #3B3B3B",
"y 	c #5F5F5F",
"z 	c #626262",
"A 	c #DCDCDC",
"B 	c #EFEFEF",
"C 	c #1D1D1D",
"D 	c #CFCFCF",
"E 	c #E9E9E9",
"F 	c #CACACA",
"G 	c #E4E4E4",
"H 	c #252525",
"I 	c #0C0C0C",
"J 	c #3C3C3C",
"K 	c #FCFCFC",
"L 	c #8B8B8B",
"M 	c #303030",
"N 	c #717171",
"O 	c #121212",
"P 	c #A8A8A8",
"Q 	c #D3D3D3",
"R 	c #CECECE",
"S 	c #F8F8F8",
"T 	c #575757",
"U 	c #9E9E9E",
"V 	c #A1A1A1",
"W 	c #E2E2E2",
"X 	c #FBFBFB",
"Y 	c #D9D9D9",
"Z 	c #9A9A9A",
"` 	c #333333",
" .	c #6E6E6E",
"..	c #F6F6F6",
"+.	c #515151",
"@.	c #4C4C4C",
"#.	c #4F4F4F",
"$.	c #525252",
"%.	c #101010",
"&.	c #606060",
"*.	c #1B1B1B",
"=.	c #6A6A6A",
"-.	c #C9C9C9",
";.	c #0D0D0D",
". . . . . . . . . . . . . . . . . . . . . . . . . . . . . . . . . . . . . . . . . . . . . . . . . . . . . . . . . . . . . . . . . . . . . . . . . . . . . . . . . . . . . . . . . . . . . . . . . . . . . . . . . . . . . . . . . . . . . . . . . . . . . . . . . . . . . . . . . . . . . . . . . . . . . . ",
". . . . . . . . . . . . . . . . . . . . . . . . . . . . . . . . . . . . . . . . . . . . . . . . . . . . . . . . . . . . . . . . . . . . . . . . . . . . . . . . . . . . . . . . . . . . . . . . . . . . . . . . . . . . . . . . . . . . . . . . . . . . . . . . . . . . . . . . . . . . . . . . . . . . . . ",
". . . . . . . . . . . . . . . . . . . . . . . . . . . . . . . . . . . . . . . . . . . . . . . . . . . . . . . . . . . . . . . . . . . . . . . . . . . . . . . . . . . . . . . . . . . . . . . . . . . . . . . . . . . . . . . . . . . . . . . . . . . . . . . . . . . . . . . . . . . . . . . . . . . . . . ",
". . . . . . . . . . . . . . . . . . . . . . . . . . . . . . . . . . . . . . . . . . . . . . . . . . . . . . . . . . . . . . . . . . . . . . . . . . . . . . . . . . . . . . . . . . . . . . . . . . . . . . . . . . . . . . . . . . . . . . . . . . . . . . . . . . . . . . . . . . . . . . . . . . . . . . ",
". . . . . . . . . . . . . . . . . . . . . . . . . . . . . . . . . . . . . . . . . . . . . . . . . . . . . . . . . . . . . . . . . . . . . . . . . . . . . . . . . . . . . . . . . . . . . . . . . . . . . . . . . . . . . . . . . . . . . . . . . . . . . . . . . . . . . . . . . . . . . . . . . . . . . . ",
". . . . . . . . . . . . . . . . . . . . . . . . . . . . . . . . . . . . . . . . . . . . . . . . . . . . . . . . . . . . . . . . . . . . . . . . . . . . . . . . . . . . . . . . . . . . . . . . . . . . . . . . . . . . . . . . . . . . . . . . . . . . . . . . . . . . . . . . . . . . . . . . . . . . . . ",
". . . . . . . . . . . . . . . . . . . . . . . . . . . . . . . . . . . . . . . . . . . . . . . . . . . . . . . . . . . . . . . . . . . . . . . . . . . . . . . . . . . . . . . . . . . . . . . . . . . . . . . . . . . . . . . . . . . . . . . . . . . . . . . . . . . . . . . . . . . . . . . . . . . . . . ",
". . . . . . . . . . . . . . . . . . . . . . . . . . . . . . . . . . . . . . . . . . . . . . . . . . . . . . . . . . . . . . . . . . . . . . . . . . . . . . . . . . . . . . . . . . . . . . . . . . . . . . . . . . . . . . . . . . . . . . . . . . . . . . . . . . . . . . . . . . . . . . . . . . . . . . ",
". . . . . . . . . . . . . . . . . . . . . . . . . . . . . . . . . . . . . . . . . . . . . . . . . . . . . . . . + + . . . . . . . . . . . . . . . . . . . . . . . . . . . . . . . . . . . . . . . . . . . . . . . . . . . . . . . . . . . . . . . . . . . . . . . . . . . . . . . . . . . . . . . . . . . . ",
". . . . . . . . . . . . . . . . . . . . . . . . . . . . . + + + @ . . . . # + + + . . . . . . . . . . . . . . . + + . . . . . . . . . . . . . . . . . . . . + + + @ . . . . # + + + . . . . . . . . . . . . . . . . . . . . . . . . . . . . . . . . . . . . . . . . . . . . . . . . . . . . . . . . . . . . ",
". . . . . . . . . . . . . . . . . . . . . . . . . . . . . + + $ % . . . . & $ + + . . . . . . . . . . . . . . . . . . . . . . . . . . . . . . . . . . . . . + + $ % . . . . & $ + + . . . . . . . . . . . . . . . . . . . . . . . . . . . . . . . . . . . . . . . . . . . . . . . . . . . . . . . . . . . . ",
". . . . . . . . . . . . . . . . . . . . . . . . . . . . . + + * = - . . ; > , + + . . . . . . . . . . . . . . . . . . . . . . . . . . . . . . . . . . . . . + + * = - . . ; > , + + . . . . . . . . . . . . . . . . . . . . . . . . . . . . . . . . . . . . . . . . . . . . . . . . . . . . . . . . . . . . ",
". . . . . . . . . . . . . . . . . . . . . . . . . . . . . + + ' + ) . . ! + ~ + + . . . . { ] ^ / ( _ . . . . . + + . . . + + : * < [ } | . . . . . . . . . + + ' + ) . . ! + ~ + + . . . . . 1 2 ^ > 3 4 5 . . . + + : * < [ } | . . . + + . . . . + + . . . . . . . . . . . . . . . . . . . . . . . . . . ",
". . . . . . . . . . . . . . . . . . . . . . . . . . . . . + + | 6 7 | . 8 9 | + + . . . . + + + + + 0 a . . . . + + . . . + + b + + + + c . . . . . . . . . + + | 6 7 | . 8 9 | + + . . . | d + + + + + + 8 e . . + + b + + + + c . . . + + . . . . + + . . . . . . . . . . . . . . . . . . . . . . . . . . ",
". . . . . . . . . . . . . . . . . . . . . . . . . . . . . + + . f + g h + i . + + . . . . j k l m n + n . . . . + + . . . + + o p q r + s . . . . . . . . . + + . f + g h + i . + + . . . t + u v 5 w a x + } . . + + o p q r + s . . . + + . . . . + + . . . . . . . . . . . . . . . . . . . . . . . . . . ",
". . . . . . . . . . . . . . . . . . . . . . . . . . . . . + + . p + y z + A . + + . . . . . . . . B + C . . . . + + . . . + + D . . E + $ . . . . . . . . . + + . p + y z + A . + + . . . o + F . . . . G + H . . + + D . . E + $ . . . + + . . . . + + . . . . . . . . . . . . . . . . . . . . . . . . . . ",
". . . . . . . . . . . . . . . . . . . . . . . . . . . . . + + . . x $ I J . . + + . . . K L M < + + + > . . . . + + . . . + + K . . . + + . . . . . . . . . + + . . x $ I J . . + + . . . < + + + + + + + + 0 . . + + K . . . + + . . . + + . . . . + + . . . . . . . . . . . . . . . . . . . . . . . . . . ",
". . . . . . . . . . . . . . . . . . . . . . . . . . . . . + + . . t + + @ . . + + . . . N + + + + + + + . . . . + + . . . + + . . . . + + . . . . . . . . . + + . . t + + @ . . + + . . . / + + + + + + + + + . . + + . . . . + + . . . + + . . . K + + . . . . . . . . . . . . . . . . . . . . . . . . . . ",
". . . . . . . . . . . . . . . . . . . . . . . . . . . . . + + . . e < < : . . + + . . . O + P 5 | e + + . . . . + + . . . + + . . . . + + . . . . . . . . . + + . . e < < : . . + + . . . s + Q . . . . . . . . . + + . . . . + + . . . < + E . . R + + . . . . . . . . . . . . . . . . . . . . . . . . . . ",
". . . . . . . . . . . . . . . . . . . . . . . . . . . . . + + . . . . . . . . + + . . . / + v S - T + + . . . . + + . . . + + . . . . + + . . . . . . . . . + + . . . . . . . . + + . . . U + 6 V W X S Y Z ( . . + + . . . . + + . . . ` +  ...p o + + . . . . . . . . . . . . . . . . . . . . . . . . . . ",
". . . . . . . . . . . . . . . . . . . . . . . . . . . . . + + . . . . . . . . + + . . . +.+ + + + @.+ + . . . . + + . . . + + . . . . + + . . . . . . . . . + + . . . . . . . . + + . . . . r + + + + + + + + . . + + . . . . + + . . . c + + + + #.+ + . . . . . . . . . . . . . . . . . . . . . . . . . . ",
". . . . . . . . . . . . . . . . . . . . . . . . . . . . . + + . . . . . . . . + + . . . ; $.< %.&.5 + + . . . . + + . . . + + . . . . + + . . . . . . . . . + + . . . . . . . . + + . . . . . _ j *.0 / 8 =.-.. . + + . . . . + + . . . | } [ ;.* : + + . . . . . . . . . . . . . . . . . . . . . . . . . . ",
". . . . . . . . . . . . . . . . . . . . . . . . . . . . . . . . . . . . . . . . . . . . . . . . . . . . . . . . . . . . . . . . . . . . . . . . . . . . . . . . . . . . . . . . . . . . . . . . . . . . . . . . . . . . . . . . . . . . . . . . . . . . . . . . . . . . . . . . . . . . . . . . . . . . . . ",
". . . . . . . . . . . . . . . . . . . . . . . . . . . . . . . . . . . . . . . . . . . . . . . . . . . . . . . . . . . . . . . . . . . . . . . . . . . . . . . . . . . . . . . . . . . . . . . . . . . . . . . . . . . . . . . . . . . . . . . . . . . . . . . . . . . . . . . . . . . . . . . . . . . . . . ",
". . . . . . . . . . . . . . . . . . . . . . . . . . . . . . . . . . . . . . . . . . . . . . . . . . . . . . . . . . . . . . . . . . . . . . . . . . . . . . . . . . . . . . . . . . . . . . . . . . . . . . . . . . . . . . . . . . . . . . . . . . . . . . . . . . . . . . . . . . . . . . . . . . . . . . ",
". . . . . . . . . . . . . . . . . . . . . . . . . . . . . . . . . . . . . . . . . . . . . . . . . . . . . . . . . . . . . . . . . . . . . . . . . . . . . . . . . . . . . . . . . . . . . . . . . . . . . . . . . . . . . . . . . . . . . . . . . . . . . . . . . . . . . . . . . . . . . . . . . . . . . . ",
". . . . . . . . . . . . . . . . . . . . . . . . . . . . . . . . . . . . . . . . . . . . . . . . . . . . . . . . . . . . . . . . . . . . . . . . . . . . . . . . . . . . . . . . . . . . . . . . . . . . . . . . . . . . . . . . . . . . . . . . . . . . . . . . . . . . . . . . . . . . . . . . . . . . . . ",
". . . . . . . . . . . . . . . . . . . . . . . . . . . . . . . . . . . . . . . . . . . . . . . . . . . . . . . . . . . . . . . . . . . . . . . . . . . . . . . . . . . . . . . . . . . . . . . . . . . . . . . . . . . . . . . . . . . . . . . . . . . . . . . . . . . . . . . . . . . . . . . . . . . . . . ",
". . . . . . . . . . . . . . . . . . . . . . . . . . . . . . . . . . . . . . . . . . . . . . . . . . . . . . . . . . . . . . . . . . . . . . . . . . . . . . . . . . . . . . . . . . . . . . . . . . . . . . . . . . . . . . . . . . . . . . . . . . . . . . . . . . . . . . . . . . . . . . . . . . . . . . ",
". . . . . . . . . . . . . . . . . . . . . . . . . . . . . . . . . . . . . . . . . . . . . . . . . . . . . . . . . . . . . . . . . . . . . . . . . . . . . . . . . . . . . . . . . . . . . . . . . . . . . . . . . . . . . . . . . . . . . . . . . . . . . . . . . . . . . . . . . . . . . . . . . . . . . . "};
