/* XPM */
static char * Play_xpm[] = {
"150 30 87 1",
" 	c None",
".	c #FFFFFF",
"+	c #000000",
"@	c #0C0C0C",
"#	c #3D3D3D",
"$	c #B3B3B3",
"%	c #B1B1B1",
"&	c #E9E9E9",
"*	c #5C5C5C",
"=	c #373737",
"-	c #EDEDED",
";	c #090909",
">	c #BABABA",
",	c #4B4B4B",
"'	c #0F0F0F",
")	c #393939",
"!	c #BCBCBC",
"~	c #D9D9D9",
"{	c #020202",
"]	c #0A0A0A",
"^	c #ECECEC",
"/	c #EFEFEF",
"(	c #0B0B0B",
"_	c #EEEEEE",
":	c #050505",
"<	c #CCCCCC",
"[	c #555555",
"}	c #848484",
"|	c #8A8A8A",
"1	c #505050",
"2	c #EAEAEA",
"3	c #5F5F5F",
"4	c #545454",
"5	c #CDCDCD",
"6	c #F9F9F9",
"7	c #E3E3E3",
"8	c #585858",
"9	c #191919",
"0	c #FBFBFB",
"a	c #1D1D1D",
"b	c #C6C6C6",
"c	c #B0B0B0",
"d	c #474747",
"e	c #9F9F9F",
"f	c #A8A8A8",
"g	c #3C3C3C",
"h	c #FCFCFC",
"i	c #8B8B8B",
"j	c #303030",
"k	c #060606",
"l	c #C0C0C0",
"m	c #2E2E2E",
"n	c #383838",
"o	c #B2B2B2",
"p	c #717171",
"q	c #3A3A3A",
"r	c #BBBBBB",
"s	c #C7C7C7",
"t	c #2A2A2A",
"u	c #FEFEFE",
"v	c #121212",
"w	c #F0F0F0",
"x	c #F1F1F1",
"y	c #484848",
"z	c #565656",
"A	c #9E9E9E",
"B	c #F8F8F8",
"C	c #DDDDDD",
"D	c #575757",
"E	c #2D2D2D",
"F	c #010101",
"G	c #030303",
"H	c #1B1B1B",
"I	c #515151",
"J	c #4C4C4C",
"K	c #A5A5A5",
"L	c #EBEBEB",
"M	c #525252",
"N	c #101010",
"O	c #606060",
"P	c #DADADA",
"Q	c #747474",
"R	c #D5D5D5",
"S	c #4A4A4A",
"T	c #040404",
"U	c #414141",
"V	c #E5E5E5",
"......................................................................................................................................................",
"......................................................................................................................................................",
"......................................................................................................................................................",
"......................................................................................................................................................",
"......................................................................................................................................................",
"......................................................................................................................................................",
"......................................................................................................................................................",
"......................................................................++..............................................................................",
"...........................................................++++@#$....++..............................................................................",
"...........................................................+++++++%...++..............................................................................",
"...........................................................++..&*+=...++..............................................................................",
"...........................................................++...-+;...++...>,';)!...~{]^..../({.......................................................",
"...........................................................++..._+;...++...+++++:<...[+}....|+1.......................................................",
"...........................................................++..23+=...++...45678+8...5+96..0a+b.......................................................",
"...........................................................+++++++c...++......./+a....d+e..f+g........................................................",
"...........................................................++++(g$....++..hij]+++k....l+m..n+o........................................................",
"...........................................................++.........++..p+++++++.....q+rs+tu........................................................",
"...........................................................++.........++..v+fwux++.....$+yz+A.........................................................",
"...........................................................++.........++..;+cBCD++.....uEFGH6.........................................................",
"...........................................................++.........++..I++++J++......K++|..........................................................",
"...........................................................++.........++..LM]NOw++......P+'x..........................................................",
"........................................................................................A+Q...........................................................",
"......................................................................................._d+R...........................................................",
"......................................................................................+++S............................................................",
"......................................................................................+TUV............................................................",
"......................................................................................................................................................",
"......................................................................................................................................................",
"......................................................................................................................................................",
"......................................................................................................................................................",
"......................................................................................................................................................"};
