/* XPM */
static char * Right_xpm[] = {
"50 50 57 1",
" 	c None",
".	c #F9F38F",
"+	c #BFBFBF",
"@	c #000000",
"#	c #404040",
"$	c #7F7F7F",
"%	c #202020",
"&	c #A0A0A0",
"*	c #020202",
"=	c #646464",
"-	c #010101",
";	c #323232",
">	c #040404",
",	c #505050",
"'	c #1C1C1C",
")	c #2C2C2C",
"!	c #101010",
"~	c #F7F29B",
"{	c #AFAFAF",
"]	c #7E7E7E",
"^	c #5B5B5B",
"/	c #DFDFDF",
"(	c #8F8F8F",
"_	c #242424",
":	c #707070",
"<	c #464646",
"[	c #1B1B1B",
"}	c #080808",
"|	c #494949",
"1	c #CFCFCF",
"2	c #909090",
"3	c #303030",
"4	c #0C0C0C",
"5	c #060606",
"6	c #757575",
"7	c #6E6E6E",
"8	c #4B4B4B",
"9	c #525252",
"0	c #3C3C3C",
"a	c #3D3D3D",
"b	c #090909",
"c	c #030303",
"d	c #6B6B6B",
"e	c #A7A7A7",
"f	c #0E0E0E",
"g	c #929292",
"h	c #070707",
"i	c #7D7D7D",
"j	c #0B0B0B",
"k	c #616161",
"l	c #C3C3C3",
"m	c #121212",
"n	c #373737",
"o	c #1F1F1F",
"p	c #111111",
"q	c #282828",
"r	c #484848",
"..................................................",
"..................................................",
"..................................................",
"..................................................",
"..................................................",
"......................+@#.........................",
".....................$@@@%&.......................",
"....................+@@@@@*=......................",
"....................@@@@@@@-;&....................",
"....................#@@@@@@@@@#...................",
".....................#@@@@@@@@@%&.................",
"......................=-@@@@@@@@>&................",
".......................=*@@@@@@@@,................",
"........................&,'@@@@@@)................",
"...........................#@@@@@-=...............",
"............................)@@@@@*&..............",
"............................,@@@@@@!&.............",
"............................&*@@@@@@*=............",
".........~{]^,&..............=-@@@@@@-=...........",
"......../(_>@@':<<<<<<<<<<<<<<[@@@@@@@@}|1........",
".......~('@@@@@@@@@@@@@@@@@@@@@@@@@@@@@@-2........",
".......{3@@@@@@@@@@@@@@@@@@@@@@@@@@@@@@@4{........",
".......2!5@@@@@@@@@@@@@@@@@@@@@@@@@@@@@*6~........",
".......1278@@@@@@@@@@@@@@@@@@@@@@@@@@@-9/.........",
"...........#@0<<<<<<<<<<<<<<<<<<ab@@@cd~..........",
"...............................ef@@@[/............",
"..............................gh@@@[..............",
".............................i@@@@j/..............",
"............................k@@@@be...............",
"...........................(@@@@hg................",
"..........................l@@@@he.................",
".........................e5@@@ml..................",
"......................./n@@@@}+...................",
"......................+o@@@@>l....................",
"...................../'@@@@pe.....................",
"....................._@@@@me......................",
"....................e@@@-n/.......................",
"....................@@@fe.........................",
"....................q@r/..........................",
"..................................................",
"..................................................",
"..................................................",
"..................................................",
"..................................................",
"..................................................",
"..................................................",
"..................................................",
"..................................................",
"..................................................",
".................................................."};
