/* XPM */
static char * stop_xpm[] = {
"50 20 79 1",
" 	c None",
".	c #F5E67F",
"+	c #000000",
"@	c #737373",
"#	c #212121",
"$	c #050505",
"%	c #0E0E0E",
"&	c #444444",
"*	c #B3B3B3",
"=	c #888888",
"-	c #2F2F2F",
";	c #090909",
">	c #8A8A8A",
",	c #616161",
"'	c #0C0C0C",
")	c #505050",
"!	c #DFDFDF",
"~	c #555555",
"{	c #3E3E3E",
"]	c #414141",
"^	c #4E4E4E",
"/	c #1C1C1C",
"(	c #ECD0A3",
"_	c #080808",
":	c #939393",
"<	c #F1F1F1",
"[	c #F9F9F9",
"}	c #C9C9C9",
"|	c #525252",
"1	c #111111",
"2	c #A7A7A7",
"3	c #A6A6A6",
"4	c #101010",
"5	c #232323",
"6	c #C8C8C8",
"7	c #767676",
"8	c #1E1E1E",
"9	c #4B4B4B",
"0	c #808080",
"a	c #C1C1C1",
"b	c #2E2E2E",
"c	c #A8A8A8",
"d	c #A5A5A5",
"e	c #303030",
"f	c #B9B9B9",
"g	c #B7B7B7",
"h	c #292929",
"i	c #B6B6B6",
"j	c #242424",
"k	c #D0D0D0",
"l	c #B0B0B0",
"m	c #717171",
"n	c #343434",
"o	c #E7E7E7",
"p	c #030303",
"q	c #010101",
"r	c #AAAAAA",
"s	c #484848",
"t	c #BABABA",
"u	c #9A9A9A",
"v	c #131313",
"w	c #BEBEBE",
"x	c #222222",
"y	c #5A5A5A",
"z	c #545454",
"A	c #3D3D3D",
"B	c #404040",
"C	c #4D4D4D",
"D	c #BFBFBF",
"E	c #535353",
"F	c #040404",
"G	c #787878",
"H	c #E5E5E5",
"I	c #121212",
"J	c #898989",
"K	c #626262",
"L	c #0B0B0B",
"M	c #4F4F4F",
"N	c #DEDEDE",
"..................................................",
"................++................................",
"................++................................",
"................++................................",
".......@#$%&*..++++++...=-;;->....++.,%')!........",
"......~++++++..++++++..{++++++]...++^++++/(.......",
"......_+:<[}|...++....=+12..34+>..++5}.6#+7.......",
"......8+90a.....++....b+c....d+e..++f...g+h.......",
"......i1+++jk...++...._+......+;..++.....+_.......",
"........lm/+n...++...._+......+;..++.....+_.......",
"..........o+p...q+....b+r....2+e..++f...g+h.......",
"......st..u+_...v+w...=+vr..c1+>..++j}.6x+7.......",
"......++++++y...z++++..A++++++B...++C++++/(.......",
"......DEvF#G....HEIq+...=b_;bJ....++.K1LMN........",
"..................................++..............",
"..................................++..............",
"..................................++..............",
"..................................++..............",
"..................................................",
".................................................."};
